<svg width="32" height="32" viewBox="0 0 32 32" fill="none" xmlns="http://www.w3.org/2000/svg">
<circle cx="16" cy="16" r="16" fill="url(#paint0_linear)"/>
<path d="M17.974 23.348C20.033 23.348 21.512 22.565 22.585 21.376V23H28.037V13.981C28.037 11.777 27.544 10.153 26.355 8.993C25.108 7.746 23.194 7.079 20.381 7.079C17.684 7.079 15.799 7.572 14.03 8.297L15.161 12.183C16.553 11.632 17.829 11.313 19.482 11.313C21.599 11.313 22.614 12.241 22.614 13.865V14.126C21.715 13.807 20.294 13.517 18.844 13.517C15.161 13.517 12.696 15.199 12.696 18.447C12.696 21.637 14.987 23.348 17.974 23.348ZM19.946 19.897C18.815 19.897 18.003 19.259 18.003 18.186C18.003 16.968 18.931 16.185 20.526 16.185C21.338 16.185 22.121 16.359 22.672 16.591V17.316C22.672 18.882 21.541 19.897 19.946 19.897Z" fill="black"/>
<defs>
<linearGradient id="paint0_linear" x1="-5.53322e-07" y1="5.92" x2="29.12" y2="31.04" gradientUnits="userSpaceOnUse">
<stop stop-color="#F5AA01"/>
<stop offset="1" stop-color="#EB840B"/>
</linearGradient>
</defs>
</svg>
