<svg width="40" height="40" viewBox="0 0 40 40" fill="none" xmlns="http://www.w3.org/2000/svg">
<path d="M20.0004 0C8.97147 0 0 8.97254 0 20C0 31.0275 8.97147 40 20.0004 40C31.0294 40 40 31.0266 40 20C40 8.97342 31.0277 0 20.0004 0ZM20.0004 39.4482C9.27926 39.4482 0.552629 30.7214 0.552629 20C0.552629 9.27859 9.27926 0.553515 20.0004 0.553515C30.7216 0.553515 39.4465 9.2751 39.4465 20C39.4465 30.7249 30.7242 39.4482 20.0004 39.4482Z" fill="black"/>
<path d="M8.60092 12.1482C8.62103 12.164 8.64201 12.1814 8.66125 12.1946C8.66125 12.1946 8.67612 12.1814 8.67699 12.1788C9.06698 11.6918 9.45784 11.203 9.84695 10.7185C9.98948 10.5436 10.1329 10.3626 10.2745 10.1842C10.3434 10.0977 10.3878 9.99435 10.4032 9.88487C10.4186 9.77538 10.4043 9.66377 10.362 9.56164C10.3121 9.45467 10.2321 9.36458 10.1318 9.30244C10.0314 9.2403 9.9151 9.20883 9.79711 9.21187C9.70112 9.21756 9.60764 9.24481 9.52363 9.29159C9.43961 9.33836 9.36721 9.40347 9.31181 9.48207L8.79416 10.1291C8.4444 10.5664 8.08589 11.0123 7.73438 11.4539C7.91713 11.6017 8.10163 11.7477 8.28438 11.8964C8.39018 11.976 8.49336 12.0616 8.60092 12.1482Z" fill="black"/>
<path d="M19.9982 0.90332C9.45194 0.90332 0.898438 9.45177 0.898438 20C0.898438 30.5483 9.45194 39.1003 19.9982 39.1003C30.5445 39.1003 39.0989 30.5466 39.0989 20C39.0989 9.45352 30.5463 0.90332 19.9982 0.90332ZM16.9133 2.09255L18.7041 1.89493L19.9982 5.67335L21.2924 1.89493L23.0823 2.09255L23.279 7.46156L21.887 7.26394L21.7532 3.67877L20.4949 7.26394H19.4989L18.2398 3.67877L18.1069 7.26394L16.7157 7.46156L16.9133 2.09255ZM4.85603 10.9374C4.71262 10.8203 4.5701 10.704 4.42494 10.5877C4.40639 10.5747 4.38885 10.5604 4.37248 10.5448L4.44768 10.453C4.81843 9.98779 5.1883 9.52522 5.56168 9.06264C5.99364 8.5205 6.42589 7.9798 6.85843 7.44057C6.94587 7.33914 7.02457 7.23508 7.10764 7.13015C7.25486 6.94821 7.44765 6.80851 7.66639 6.72529C7.83792 6.66206 8.02088 6.63584 8.20326 6.64835C8.38564 6.66086 8.56331 6.71181 8.72459 6.79787C8.88588 6.88392 9.02714 7.00313 9.13908 7.14766C9.25102 7.29218 9.33112 7.45876 9.37412 7.63645C9.42758 7.87424 9.41702 8.12197 9.34351 8.35435C9.37587 8.32812 9.40647 8.29926 9.43882 8.27391C9.64237 8.12369 9.88178 8.02952 10.1331 8.00082C10.3845 7.97212 10.6389 8.00989 10.8711 8.11036C11.1033 8.21082 11.305 8.37046 11.4562 8.57333C11.6073 8.77619 11.7026 9.01517 11.7324 9.26639C11.7538 9.45798 11.7378 9.65192 11.6852 9.83739C11.5759 10.195 11.3223 10.467 11.0932 10.7494C10.6496 11.3056 10.2054 11.8594 9.76061 12.4108C9.39248 12.8752 9.01998 13.336 8.65098 13.7994C8.62212 13.8344 8.59589 13.8685 8.56354 13.9017C8.55829 13.9105 8.52681 13.8773 8.52069 13.8711C8.38253 13.7601 8.24525 13.6525 8.10797 13.5415L6.48856 12.2447C5.94729 11.811 5.40254 11.3703 4.85603 10.9374ZM19.9982 31.9395C17.637 31.9399 15.3287 31.24 13.3652 29.9284C11.4018 28.6168 9.87134 26.7525 8.96747 24.571C8.06359 22.3896 7.82687 19.9892 8.28724 17.6732C8.74762 15.3572 9.88441 13.2298 11.5539 11.56C13.2233 9.89011 15.3504 8.75282 17.6662 8.29192C19.982 7.83103 22.3825 8.06723 24.5641 8.97065C26.7456 9.87407 28.6103 11.4041 29.9223 13.3674C31.2343 15.3306 31.9347 17.6388 31.9348 20C31.9351 23.1662 30.6776 26.2028 28.4391 28.4419C26.2006 30.6809 23.1643 31.9391 19.9982 31.9395ZM31.3656 13.8292L30.68 12.6557L33.041 9.55495L29.5022 11.1788L28.508 10.2597L31.7363 6.017L32.7323 6.9369L30.8689 9.38531L33.848 8.0177L34.7225 9.10374L32.7349 11.7148L35.533 10.4303L36.2177 11.6046L31.3656 13.8292Z" fill="black"/>
<path d="M8.55836 8.73939C8.58554 8.63192 8.58232 8.51902 8.54906 8.41328C8.5158 8.30754 8.45381 8.21312 8.37001 8.14056C8.28621 8.068 8.18389 8.02016 8.07448 8.00238C7.96507 7.98459 7.85287 7.99756 7.7504 8.03984C7.58339 8.10979 7.48283 8.2567 7.37266 8.39573C6.95294 8.92039 6.53409 9.44068 6.11787 9.96446C6.08435 10.0027 6.05283 10.0427 6.02344 10.0843L6.27964 10.2898C6.50349 10.4716 6.72996 10.6491 6.95294 10.8293C7.17504 10.5538 7.39014 10.2775 7.61399 10.0012C7.83784 9.72487 8.05557 9.45205 8.2768 9.17748C8.3861 9.03582 8.50939 8.9134 8.55836 8.73939Z" fill="black"/>
<path d="M19.9936 8.24878V20.0003H8.24414C8.32631 16.9098 9.59052 13.9685 11.7764 11.7823C13.9622 9.59608 16.9032 8.33141 19.9936 8.24878Z" fill="url(#paint0_linear)"/>
<path d="M31.7521 20C31.6693 23.0908 30.4045 26.0322 28.2183 28.2185C26.032 30.4048 23.0907 31.6695 20 31.7524V20H31.7521Z" fill="url(#paint1_linear)"/>
<defs>
<linearGradient id="paint0_linear" x1="11.7855" y1="11.7316" x2="20.0148" y2="20.1723" gradientUnits="userSpaceOnUse">
<stop stop-color="#46BEE1"/>
<stop offset="0.62" stop-color="#3394BC"/>
<stop offset="1" stop-color="#2678A3"/>
</linearGradient>
<linearGradient id="paint1_linear" x1="19.8103" y1="20.3646" x2="28.5082" y2="28.2676" gradientUnits="userSpaceOnUse">
<stop stop-color="#3091BA"/>
<stop offset="1" stop-color="#00448B"/>
</linearGradient>
</defs>
</svg>
