<svg width="80" height="80" viewBox="0 0 80 80" fill="none" xmlns="http://www.w3.org/2000/svg">
<path d="M40.0009 0C17.9429 0 0 17.9447 0 39.9991C0 62.0536 17.9429 79.9983 40.0009 79.9983C62.0588 79.9983 80 62.0518 80 39.9991C80 17.9464 62.0553 0 40.0009 0ZM40.0009 78.8948C18.5585 78.8948 1.10526 61.4415 1.10526 39.9991C1.10526 18.5568 18.5585 1.10701 40.0009 1.10701C61.4432 1.10701 78.893 18.5498 78.893 39.9991C78.893 61.4485 61.4485 78.8948 40.0009 78.8948Z" fill="black"/>
<path d="M17.2018 24.2965C17.2421 24.328 17.284 24.363 17.3225 24.3892C17.3225 24.3892 17.3522 24.363 17.354 24.3578C18.134 23.3837 18.9157 22.4061 19.6939 21.4372C19.979 21.0874 20.2658 20.7254 20.5491 20.3687C20.6868 20.1957 20.7756 19.9889 20.8063 19.77C20.8371 19.551 20.8087 19.3278 20.724 19.1235C20.6242 18.9096 20.4642 18.7294 20.2635 18.6051C20.0628 18.4809 19.8302 18.4179 19.5942 18.424C19.4022 18.4354 19.2153 18.4899 19.0473 18.5834C18.8792 18.677 18.7344 18.8072 18.6236 18.9644L17.5883 20.2585C16.8888 21.1329 16.1718 22.0248 15.4688 22.908C15.8343 23.2035 16.2033 23.4956 16.5688 23.7929C16.7804 23.952 16.9867 24.1234 17.2018 24.2965Z" fill="black"/>
<path d="M40.0023 1.80664C18.9097 1.80664 1.80273 18.9032 1.80273 39.9992C1.80273 61.0953 18.9097 78.1988 40.0023 78.1988C61.0949 78.1988 78.2037 61.0918 78.2037 39.9992C78.2037 18.9067 61.0984 1.80664 40.0023 1.80664ZM33.8325 4.18504L37.4141 3.78981L40.0023 11.3465L42.5906 3.78981L46.1704 4.18504L46.5639 14.9228L43.7798 14.5276L43.5122 7.35741L40.9957 14.5276H39.0037L36.4854 7.35741L36.2196 14.5276L33.4372 14.9228L33.8325 4.18504ZM9.71792 21.8744C9.43111 21.6401 9.14605 21.4075 8.85575 21.1749C8.81864 21.149 8.78356 21.1204 8.75082 21.0892L8.90121 20.9056C9.64272 19.9752 10.3825 19.0501 11.1292 18.1249C11.9931 17.0407 12.8576 15.9593 13.7227 14.8809C13.8976 14.678 14.055 14.4699 14.2211 14.26C14.5156 13.8961 14.9012 13.6168 15.3386 13.4503C15.6817 13.3239 16.0476 13.2714 16.4124 13.2964C16.7771 13.3215 17.1325 13.4234 17.455 13.5955C17.7776 13.7676 18.0601 14.006 18.284 14.295C18.5079 14.5841 18.6681 14.9172 18.7541 15.2726C18.861 15.7482 18.8399 16.2436 18.6929 16.7084C18.7576 16.6559 18.8188 16.5982 18.8835 16.5475C19.2906 16.2471 19.7694 16.0587 20.2721 16.0013C20.7748 15.9439 21.2837 16.0195 21.7481 16.2204C22.2124 16.4213 22.6159 16.7406 22.9182 17.1463C23.2205 17.552 23.411 18.03 23.4707 18.5324C23.5135 18.9156 23.4815 19.3034 23.3762 19.6744C23.1576 20.3897 22.6505 20.9335 22.1923 21.4984C21.305 22.6107 20.4166 23.7183 19.5271 24.8212C18.7908 25.7498 18.0458 26.6714 17.3078 27.5983C17.2501 27.6683 17.1976 27.7365 17.1329 27.8029C17.1224 27.8204 17.0595 27.754 17.0472 27.7417C16.7709 27.5196 16.4964 27.3045 16.2218 27.0824L12.983 24.4889C11.9004 23.6215 10.8109 22.7401 9.71792 21.8744ZM40.0023 63.8777C35.2799 63.8784 30.6633 62.4787 26.7364 59.8556C22.8094 57.2324 19.7486 53.5038 17.9408 49.141C16.133 44.7783 15.6596 39.9775 16.5803 35.3457C17.5011 30.7138 19.7747 26.4591 23.1136 23.1195C26.4525 19.7798 30.7067 17.5053 35.3383 16.5835C39.97 15.6618 44.7709 16.1341 49.134 17.9409C53.4972 19.7477 57.2265 22.8078 59.8505 26.7342C62.4745 30.6605 63.8752 35.2768 63.8755 39.9992C63.876 46.3314 61.3611 52.4045 56.8841 56.8825C52.407 61.3605 46.3345 63.8768 40.0023 63.8777ZM62.737 27.6578L61.366 25.3108L66.0878 19.1095L59.0103 22.3571L57.0219 20.5191L63.4785 12.0338L65.4705 13.8735L61.7437 18.7702L67.702 16.0351L69.4508 18.2071L65.4757 23.4291L71.0719 20.8601L72.4413 23.2088L62.737 27.6578Z" fill="black"/>
<path d="M17.1148 17.478C17.1691 17.2631 17.1627 17.0373 17.0962 16.8258C17.0296 16.6143 16.9057 16.4255 16.7381 16.2804C16.5705 16.1353 16.3658 16.0396 16.147 16.004C15.9282 15.9685 15.7038 15.9944 15.4989 16.0789C15.1648 16.2189 14.9637 16.5127 14.7434 16.7907C13.9039 17.84 13.0662 18.8806 12.2338 19.9281C12.1668 20.0047 12.1037 20.0846 12.0449 20.1677L12.5573 20.5787C13.005 20.9424 13.458 21.2974 13.9039 21.6577C14.3481 21.1068 14.7783 20.5542 15.226 20.0016C15.6737 19.4489 16.1092 18.9033 16.5516 18.3542C16.7702 18.0709 17.0168 17.826 17.1148 17.478Z" fill="black"/>
<path d="M39.999 16.4968V39.9993H16.5C16.6643 33.8185 19.1928 27.9361 23.5645 23.5637C27.9362 19.1914 33.8182 16.6621 39.999 16.4968Z" fill="url(#paint0_linear)"/>
<path d="M63.5042 39.999C63.3386 46.1805 60.8091 52.0631 56.4366 56.4356C52.0641 60.8081 46.1814 63.3376 40 63.5032V39.999H63.5042Z" fill="url(#paint1_linear)"/>
<defs>
<linearGradient id="paint0_linear" x1="23.5827" y1="23.4624" x2="40.0409" y2="40.3438" gradientUnits="userSpaceOnUse">
<stop stop-color="#46BEE1"/>
<stop offset="0.62" stop-color="#3394BC"/>
<stop offset="1" stop-color="#2678A3"/>
</linearGradient>
<linearGradient id="paint1_linear" x1="39.6205" y1="40.7283" x2="57.0161" y2="56.5342" gradientUnits="userSpaceOnUse">
<stop stop-color="#3091BA"/>
<stop offset="1" stop-color="#00448B"/>
</linearGradient>
</defs>
</svg>
