<svg width="24" height="26" viewBox="0 0 24 26" fill="none" xmlns="http://www.w3.org/2000/svg">
<path d="M1 5.80001H3.44444M3.44444 5.80001H23M3.44444 5.80001L3.44484 22.6C3.44484 23.2365 3.70238 23.847 4.1608 24.2971C4.61923 24.7471 5.24098 25 5.88929 25H18.1115C18.7598 25 19.3816 24.7471 19.84 24.2971C20.2984 23.847 20.556 23.2365 20.556 22.6V5.8L3.44444 5.80001ZM7.11151 5.8V3.4C7.11151 2.76348 7.36905 2.15303 7.82747 1.70294C8.28589 1.25286 8.90765 1 9.55595 1H14.4448C15.0931 1 15.7149 1.25286 16.1733 1.70294C16.6317 2.15303 16.8893 2.76348 16.8893 3.4V5.8M7.82747 20.5V10M16.1733 20.5V10M12.2037 11.5V20.5" stroke="#ABABAB" stroke-width="2" stroke-linecap="round" stroke-linejoin="round"/>
</svg>
