<svg width="40" height="40" viewBox="0 0 40 40" fill="none" xmlns="http://www.w3.org/2000/svg">
<path d="M38.62 15.754C38.26 15.6548 37.84 15.5952 36.98 15.496C33.38 15.3373 24.52 15 20 15C15.48 15 6.62 15.3373 3.02 15.496C2.16 15.5952 1.74 15.6548 1.38 15.754C0.24 16.0119 0 16.4087 0 17.2222V22.7183C0 23.5119 0.86 24.0675 1.46 24.1667C2.06 24.2857 2.44 24.3254 3.06 24.3849C6.26 24.5833 13.72 25 20 25C26.28 25 33.72 24.5833 36.94 24.3849C37.56 24.3254 37.94 24.2857 38.54 24.1667C39.14 24.0675 40 23.5119 40 22.7183V17.2222C40 16.4087 39.76 16.0119 38.62 15.754Z" fill="url(#paint0_linear)"/>
<path d="M5.57394 15.9803C7.32981 9.94251 13.1162 5.5174 20 5.5174C26.8439 5.5174 32.6303 9.92284 34.4061 15.941C34.4061 15.9607 34.4061 15.9803 34.4261 16C35.4437 15.882 36.3615 15.705 37 15.5477C36.98 15.5083 36.98 15.5083 36.98 15.469C34.9648 8.2708 28.1209 3 20 3C11.8592 3 4.99531 8.31014 3 15.5083C3.89789 15.7443 4.55634 15.8427 5.57394 15.9803Z" fill="url(#paint1_radial)"/>
<path d="M34.4 25C34.38 25.0554 34.36 25.1108 34.36 25.1292C32.48 30.6492 26.76 34.6554 20 34.6554C13.18 34.6554 7.44 30.5938 5.6 25C4.48 25.1846 4.1 25.2585 3 25.3877C5.06 32.0892 11.88 37 20 37C28.12 37 34.96 32.0708 37 25.3692C36.02 25.2769 35.46 25.1846 34.4 25Z" fill="url(#paint2_radial)"/>
<path d="M6.38105 14.9953C6.80221 14.8265 7.22337 14.564 7.86514 14.3952C9.79046 9.74449 14.7241 6.42522 20.5201 6.42522C26.296 6.42522 31.2296 9.72574 33.1549 14.3577C33.1549 14.3765 33.175 14.3952 33.175 14.3952C33.5159 14.5077 34.4786 14.864 34.7794 14.9953C34.8195 14.9953 34.9198 14.9953 35 14.9953C35 14.9766 34.9799 14.9578 34.9799 14.9391C33.195 9.20066 27.379 5 20.5 5C13.601 5 7.78492 9.21941 6 14.9766C6.12033 15.0141 6.30083 14.9953 6.38105 14.9953Z" fill="url(#paint3_radial)"/>
<path d="M20.3997 5.394C26.8575 5.394 32.5934 8.99625 34.7593 14.9437C34.7593 14.9625 34.7794 14.9812 34.7794 15C34.8195 15 34.9398 15 35 15C35 14.9812 34.9799 14.9625 34.9799 14.9437C33.195 9.20263 27.379 5 20.5 5C13.601 5 7.78492 9.22139 6 14.9812C6.14039 14.9812 6.20055 14.9812 6.361 14.9625C8.30636 9.33396 13.982 5.394 20.3997 5.394Z" fill="white"/>
<path d="M34.6574 25.0048C34.1939 25.2532 33.6095 25.4826 33.1459 25.6355C33.1459 25.6546 33.1056 25.7119 33.1056 25.731C31.0903 30.3177 26.2133 33.5667 20.5101 33.5667C14.7665 33.5667 9.86935 30.2795 7.87422 25.6546C7.33009 25.5208 6.54413 25.1768 6.24183 25.0239C6.12092 25.0239 6.06046 25.0239 6 25.0048C7.85407 30.7764 13.6379 35 20.5101 35C27.3419 35 33.1258 30.8337 34.9798 25.1003C34.9798 25.0812 35 25.0239 35 25.0239C34.9194 24.9857 34.738 25.0048 34.6574 25.0048Z" fill="url(#paint4_radial)"/>
<path d="M38.3 15.6109C37.34 15.4751 36.7 15.4977 34.38 15.4072C34.28 15.4072 34.16 15.4072 34.06 15.3846C29.86 15.2262 23.56 15 20 15C16.44 15 10.12 15.2262 5.94 15.3846C5.84 15.3846 5.72 15.3846 5.62 15.4072C3.3 15.4977 2.66 15.4751 1.7 15.6109C0.74 15.7466 0 16.1991 0 17.0136V22.8281C0 23.6199 0.9 24.276 1.7 24.276C1.7 24.276 11.84 24.9774 20 25C28.16 25 38.3 24.276 38.3 24.276C39.1 24.276 40 23.6199 40 22.8281V17.0136C40 16.1991 39.26 15.7466 38.3 15.6109Z" fill="url(#paint5_radial)"/>
<path d="M34.6174 25.0191C32.6035 30.6597 26.9646 34.5985 20.6007 34.5985C14.1562 34.5985 8.45694 30.9847 6.24167 25.0191C6.16111 25.0191 6.08056 25.0191 6 25C7.85278 30.7744 13.6326 35 20.5 35C27.3674 35 33.1472 30.7744 35 25C34.859 25 34.7382 25.0191 34.6174 25.0191Z" fill="white"/>
<path d="M34 25C33.5472 25.2686 33 25.5165 32.566 25.6818C32.566 25.7025 32.5283 25.7645 32.5283 25.7851C31.9245 27.3554 31.0755 28.781 30 30C31.6981 28.6364 33.0566 26.9421 34 25Z" fill="#8C8C8C"/>
<path d="M11 30C9.58051 28.7692 8.45763 27.2885 7.7161 25.6346C7.14407 25.5 6.3178 25.1538 6 25C6.33898 25.6538 6.74153 26.25 7.18644 26.8269C8.11864 27.9231 9.26271 28.9231 10.5339 29.75C10.6822 29.8269 10.8517 29.9231 11 30Z" fill="#4D4D4D"/>
<path d="M28.1364 17.822C27.7928 17 27.9141 17.0889 27.1864 17.0667C27.1257 17.0444 26.964 17.0444 26.7416 17.0444C26.5193 17.0444 26.4788 17.0444 26.2969 17.0667C25.6096 17.0667 25.7309 17.0222 25.4883 17.5777C25.4883 17.5777 24.2956 20.5103 23.7903 21.7323L23.7701 21.7767C23.669 21.9989 23.7296 21.9989 23.8913 21.9989H24.9627C25.0436 21.9989 25.084 21.9545 25.1042 21.91C25.1042 21.91 25.2659 21.5323 25.4681 21.0213H28.0758C28.278 21.5323 28.4195 21.8878 28.4195 21.91C28.4397 21.9767 28.5003 21.9989 28.561 21.9989H29.6728C29.8345 21.9989 29.8749 22.0211 29.8143 21.8656C29.6121 21.3324 28.3184 18.2886 28.1364 17.822ZM25.8724 19.9771C26.216 19.1106 26.5395 18.2664 26.5395 18.2442C26.5597 18.1997 26.6001 18.1775 26.6608 18.1775C26.681 18.1553 26.7416 18.1553 26.8023 18.1553C26.8427 18.1553 26.9033 18.1553 26.9236 18.1775C26.964 18.1775 27.0044 18.1997 27.0246 18.2664C27.1055 18.5108 27.4087 19.244 27.6715 19.9771H25.8724ZM11.5805 17C11.6816 17 11.7018 17.0444 11.7018 17.1333V21.7989C11.7018 21.91 11.6816 21.9545 11.5603 21.9545H10.5294C10.4081 21.9545 10.3879 21.9323 10.3879 21.7989V17.1333C10.3879 17.0444 10.4081 17 10.4889 17H11.5805ZM9.37713 17.0444C9.49842 17.0444 9.51864 17.0889 9.51864 17.2V21.8434C9.51864 21.9767 9.49842 21.9989 9.37713 21.9989H8.16424C7.45673 21.9989 7.39608 21.9989 7.15351 21.5546C6.66835 20.7103 5.17246 18.1997 5.17246 18.1997V21.8434C5.17246 21.9767 5.15224 21.9989 5.03095 21.9989H4.1415C4.02021 21.9989 4 21.9767 4 21.8434V17.2C4 17.0889 4.02021 17.0444 4.1415 17.0444C4.1415 17.0444 4.38408 17.0444 5.17246 17.0444C5.94062 17.0444 6.04169 17.0222 6.3247 17.4666C6.54706 17.8665 8.34618 20.9103 8.34618 20.9103V17.2C8.34618 17.0889 8.36639 17.0444 8.48768 17.0444H9.37713ZM35.8585 17.0444C35.9798 17.0444 36 17.0889 36 17.2V21.8434C36 21.9767 35.9798 21.9989 35.8585 21.9989H34.6456C33.9381 21.9989 33.8774 21.9989 33.6349 21.5546C33.1295 20.7103 31.6538 18.1997 31.6538 18.1997V21.8434C31.6538 21.9767 31.6336 21.9989 31.5123 21.9989H30.6229C30.5016 21.9989 30.4814 21.9767 30.4814 21.8434V17.2C30.4814 17.0889 30.5016 17.0444 30.6229 17.0444C30.6229 17.0444 30.8654 17.0444 31.6538 17.0444C32.422 17.0444 32.5231 17.0222 32.8061 17.4666C33.0486 17.8665 34.8275 20.9103 34.8275 20.9103V17.2C34.8275 17.0889 34.8478 17.0444 34.969 17.0444H35.8585ZM16.1289 18.9329C16.9172 19.0218 17.5035 19.1773 17.6652 19.9993C17.6652 20.066 17.6854 20.2882 17.6854 20.5326C17.6854 20.6881 17.6854 20.888 17.645 21.0658C17.5035 21.8434 16.9779 21.9989 16.1289 21.9989H12.7934C12.6721 21.9989 12.6519 21.9767 12.6519 21.8434V21.0658C12.6519 20.9325 12.6721 20.9103 12.7934 20.9103C12.7934 20.9103 16.1087 20.9103 16.1693 20.9103C16.3108 20.9103 16.3512 20.8658 16.3714 20.7547C16.3714 20.6659 16.3714 20.6214 16.3714 20.5548C16.3714 20.4881 16.3714 20.4437 16.3714 20.4215C16.3512 20.3326 16.331 20.1993 16.1491 20.1771C15.765 20.1549 14.6532 20.0438 13.9052 19.9549C12.9349 19.8438 12.6924 19.3995 12.6519 18.9996C12.6317 18.8663 12.6317 18.6885 12.6317 18.533C12.6317 18.3997 12.6317 18.1997 12.6519 18.0442C12.7934 17.3555 13.2584 17.0222 14.1074 17.0222H17.3418C17.463 17.0222 17.5035 17.0444 17.5035 17.1555V17.9553C17.5035 18.0664 17.463 18.1109 17.3418 18.0887C17.3418 18.0887 14.2489 18.0887 14.168 18.0887C14.0265 18.0887 13.9659 18.1553 13.9457 18.3108C13.9457 18.333 13.9457 18.3553 13.9457 18.3997C13.9457 18.4441 13.9457 18.4663 13.9457 18.5108C13.9457 18.6219 14.0063 18.7107 14.1478 18.733C14.5117 18.7996 15.6841 18.8885 16.1289 18.9329ZM21.8497 18.9329C22.638 19.0218 23.2243 19.1773 23.386 19.9993C23.386 20.066 23.4062 20.2882 23.4062 20.5326C23.4062 20.6881 23.4062 20.888 23.3658 21.0658C23.2243 21.8434 22.6987 21.9989 21.8497 21.9989H18.5344C18.4131 21.9989 18.3929 21.9767 18.3929 21.8434V21.0658C18.3929 20.9325 18.4131 20.9103 18.5344 20.9103C18.5344 20.9103 21.8497 20.9103 21.9103 20.9103C22.0518 20.9103 22.0922 20.8658 22.1124 20.7547C22.1124 20.6659 22.1124 20.6214 22.1124 20.5548C22.1124 20.4881 22.1124 20.4437 22.1124 20.4215C22.0922 20.3326 22.0518 20.1993 21.8901 20.1771C21.506 20.1549 20.3942 20.0438 19.6462 19.9549C18.6759 19.8438 18.4536 19.3995 18.3929 18.9996C18.3727 18.8663 18.3727 18.6885 18.3727 18.533C18.3727 18.3997 18.3727 18.1997 18.3929 18.0442C18.5344 17.3555 18.9994 17.0222 19.8484 17.0222H23.0828C23.204 17.0222 23.2445 17.0444 23.2445 17.1555V17.9553C23.2445 18.0664 23.204 18.1109 23.0828 18.0887C23.0828 18.0887 19.9899 18.0887 19.909 18.0887C19.7675 18.0887 19.7069 18.1553 19.6867 18.3108C19.6867 18.333 19.6867 18.3553 19.6867 18.3997C19.6867 18.4441 19.6867 18.4663 19.6867 18.5108C19.6867 18.6219 19.7271 18.7107 19.8888 18.733C20.2527 18.7996 21.4251 18.8885 21.8497 18.9329Z" fill="url(#paint6_radial)"/>
<defs>
<linearGradient id="paint0_linear" x1="20" y1="3.37256" x2="20" y2="31.0314" gradientUnits="userSpaceOnUse">
<stop offset="0.1944" stop-color="white"/>
<stop offset="0.2085" stop-color="#F8F8F8"/>
<stop offset="0.3657" stop-color="#AEAEAE"/>
<stop offset="0.5133" stop-color="#707070"/>
<stop offset="0.6468" stop-color="#404040"/>
<stop offset="0.7637" stop-color="#1D1D1D"/>
<stop offset="0.8595" stop-color="#080808"/>
<stop offset="0.9222"/>
</linearGradient>
<radialGradient id="paint1_radial" cx="0" cy="0" r="1" gradientUnits="userSpaceOnUse" gradientTransform="translate(8.73772 -3.7767) scale(27.827 27.4283)">
<stop offset="0.2022" stop-color="white"/>
<stop offset="0.3822" stop-color="#FDFDFD"/>
<stop offset="0.4874" stop-color="#F4F4F4"/>
<stop offset="0.5732" stop-color="#E6E6E6"/>
<stop offset="0.6483" stop-color="#D2D2D2"/>
<stop offset="0.6889" stop-color="#C4C4C4"/>
<stop offset="1" stop-color="#333333"/>
</radialGradient>
<radialGradient id="paint2_radial" cx="0" cy="0" r="1" gradientUnits="userSpaceOnUse" gradientTransform="translate(76.2136 40.2722) scale(58.0902 53.6218)">
<stop offset="0.2022" stop-color="white"/>
<stop offset="0.368" stop-color="#E4E4E4"/>
<stop offset="0.5944" stop-color="#C4C4C4"/>
<stop offset="1" stop-color="#333333"/>
</radialGradient>
<radialGradient id="paint3_radial" cx="0" cy="0" r="1" gradientUnits="userSpaceOnUse" gradientTransform="translate(15.8983 26.0462) scale(17.8832 16.7219)">
<stop offset="0.2022" stop-color="white"/>
<stop offset="0.368" stop-color="#E4E4E4"/>
<stop offset="0.5944" stop-color="#C4C4C4"/>
<stop offset="1" stop-color="#333333"/>
</radialGradient>
<radialGradient id="paint4_radial" cx="0" cy="0" r="1" gradientUnits="userSpaceOnUse" gradientTransform="translate(30.3874 45.9713) scale(34.0973 32.335)">
<stop offset="0.2022" stop-color="white"/>
<stop offset="0.368" stop-color="#E4E4E4"/>
<stop offset="0.5944" stop-color="#C4C4C4"/>
<stop offset="1" stop-color="#333333"/>
</radialGradient>
<radialGradient id="paint5_radial" cx="0" cy="0" r="1" gradientUnits="userSpaceOnUse" gradientTransform="translate(19.732 4.45982) scale(26.8903 30.4189)">
<stop offset="0.2022" stop-color="white"/>
<stop offset="0.3966" stop-color="#FDFDFD"/>
<stop offset="0.5101" stop-color="#F4F4F4"/>
<stop offset="0.6029" stop-color="#E6E6E6"/>
<stop offset="0.6839" stop-color="#D2D2D2"/>
<stop offset="0.7278" stop-color="#C4C4C4"/>
<stop offset="1" stop-color="#4D4D4D"/>
</radialGradient>
<radialGradient id="paint6_radial" cx="0" cy="0" r="1" gradientUnits="userSpaceOnUse" gradientTransform="translate(20.2881 7.35285) scale(18.3064 20.1199)">
<stop offset="0.1111" stop-color="#4D4D4D"/>
<stop offset="0.248" stop-color="#494949"/>
<stop offset="0.3546" stop-color="#404040"/>
<stop offset="0.451" stop-color="#2F2F2F"/>
<stop offset="0.5409" stop-color="#181818"/>
<stop offset="0.6111"/>
</radialGradient>
</defs>
</svg>
