<svg width="23" height="22" viewBox="0 0 23 22" fill="none" xmlns="http://www.w3.org/2000/svg">
<path d="M21.0058 10.4445C21.0097 11.911 20.667 13.3577 20.0058 14.6667C19.2219 16.2353 18.0167 17.5546 16.5252 18.477C15.0338 19.3993 13.315 19.8882 11.5614 19.8889C10.0949 19.8927 8.6482 19.5501 7.33918 18.8889L1.00586 21L3.11697 14.6667C2.45578 13.3577 2.11315 11.911 2.11697 10.4445C2.11765 8.69086 2.60654 6.97208 3.52888 5.48064C4.45122 3.98919 5.77058 2.78399 7.33918 2.00003C8.6482 1.33884 10.0949 0.996208 11.5614 1.00003H12.117C14.4329 1.1278 16.6203 2.10532 18.2604 3.74543C19.9005 5.38553 20.8781 7.57297 21.0058 9.88891V10.4445Z" stroke="#747474" stroke-width="2" stroke-linecap="round" stroke-linejoin="round"/>
</svg>
