<svg width="18" height="16" viewBox="0 0 18 16" fill="none" xmlns="http://www.w3.org/2000/svg">
<path d="M16.6676 1.75517C16.4952 1.6146 16.2975 1.51052 16.0858 1.44885C15.8741 1.38718 15.6525 1.36914 15.4337 1.39577C15.2149 1.42239 15.0032 1.49315 14.8107 1.60401C14.6181 1.71487 14.4486 1.86366 14.3116 2.04187L7.39323 11.0309L3.3954 7.84612C3.07478 7.59036 2.66824 7.47669 2.26522 7.53012C1.8622 7.58355 1.49571 7.7997 1.24637 8.13102C0.99703 8.46234 0.885271 8.88169 0.935675 9.29682C0.98608 9.71195 1.19452 10.0889 1.51514 10.3446L6.87403 14.6134C7.03908 14.7448 7.2288 14.8396 7.4313 14.8918C7.6338 14.9441 7.84474 14.9527 8.05091 14.9171C8.27012 14.8908 8.48231 14.8203 8.67531 14.7095C8.86831 14.5987 9.03833 14.4498 9.17562 14.2714L16.9375 4.18335C17.2142 3.8231 17.3412 3.3649 17.2905 2.90944C17.2399 2.45398 17.0157 2.03852 16.6674 1.75437" fill="white"/>
</svg>
