<svg width="24" height="23" viewBox="0 0 24 23" fill="none" xmlns="http://www.w3.org/2000/svg">
                        <path d="M18.1918 22.0025H5.82666C4.80306 22.0095 3.79603 21.7457 2.90897 21.2383C2.02191 20.7308 1.2868 19.998 0.7791 19.115C0.268933 18.2504 0 17.2663 0 16.2641C0 15.2619 0.268933 14.2779 0.7791 13.4133L6.98935 2.86234C7.50153 1.99125 8.23448 1.26864 9.11521 0.766444C9.99594 0.264251 10.9937 0 12.0092 0C13.0247 0 14.0225 0.264251 14.9032 0.766444C15.784 1.26864 16.5169 1.99125 17.0291 2.86234L23.2209 13.4133C23.7311 14.2779 24 15.2619 24 16.2641C24 17.2663 23.7311 18.2504 23.2209 19.115C22.7147 19.9953 21.9825 20.7264 21.099 21.2336C20.2155 21.7409 19.2123 22.0063 18.1918 22.0025ZM12.0092 1.83566C11.3165 1.8295 10.6345 2.00617 10.033 2.3476C9.43155 2.68904 8.9321 3.18301 8.58575 3.77901L2.39395 14.3391C2.04747 14.9239 1.86476 15.5901 1.86476 16.2687C1.86476 16.9473 2.04747 17.6135 2.39395 18.1983C2.73678 18.8015 3.23598 19.3024 3.83965 19.649C4.44333 19.9955 5.12944 20.1752 5.82666 20.1692H18.1918C18.8906 20.1768 19.5786 19.998 20.184 19.6513C20.7895 19.3046 21.2901 18.8028 21.6337 18.1983C21.9802 17.6135 22.1629 16.9473 22.1629 16.2687C22.1629 15.5901 21.9802 14.9239 21.6337 14.3391L15.4327 3.77901C15.0864 3.18301 14.5869 2.68904 13.9854 2.3476C13.3839 2.00617 12.702 1.8295 12.0092 1.83566Z" fill="#EB840B"/>
                        <path d="M12.0092 1.83566C11.3165 1.8295 10.6345 2.00617 10.033 2.3476C9.43155 2.68904 8.9321 3.18301 8.58575 3.77901L2.39395 14.3391C2.04747 14.9239 1.86476 15.5901 1.86476 16.2687C1.86476 16.9473 2.04747 17.6135 2.39395 18.1983C2.73678 18.8015 3.23598 19.3024 3.83965 19.649C4.44333 19.9955 5.12944 20.1752 5.82666 20.1692H18.1918C18.8906 20.1768 19.5786 19.998 20.184 19.6513C20.7895 19.3046 21.2901 18.8028 21.6337 18.1983C21.9802 17.6135 22.1629 16.9473 22.1629 16.2687C22.1629 15.5901 21.9802 14.9239 21.6337 14.3391L15.4327 3.77901C15.0864 3.18301 14.5869 2.68904 13.9854 2.3476C13.3839 2.00617 12.702 1.8295 12.0092 1.83566Z" fill="#EB840B"/>
                        <path d="M18.1918 22.0025H5.82666C4.80306 22.0095 3.79603 21.7457 2.90897 21.2383C2.02191 20.7308 1.2868 19.998 0.7791 19.115C0.268933 18.2504 0 17.2663 0 16.2641C0 15.2619 0.268933 14.2779 0.7791 13.4133L6.98935 2.86234C7.50153 1.99125 8.23448 1.26864 9.11521 0.766444C9.99594 0.264251 10.9937 0 12.0092 0C13.0247 0 14.0225 0.264251 14.9032 0.766444C15.784 1.26864 16.5169 1.99125 17.0291 2.86234L23.2209 13.4133C23.7311 14.2779 24 15.2619 24 16.2641C24 17.2663 23.7311 18.2504 23.2209 19.115C22.7147 19.9953 21.9825 20.7264 21.099 21.2336C20.2155 21.7409 19.2123 22.0063 18.1918 22.0025ZM12.0092 1.83566C11.3165 1.8295 10.6345 2.00617 10.033 2.3476C9.43155 2.68904 8.9321 3.18301 8.58575 3.77901L2.39395 14.3391C2.04747 14.9239 1.86476 15.5901 1.86476 16.2687C1.86476 16.9473 2.04747 17.6135 2.39395 18.1983C2.73678 18.8015 3.23598 19.3024 3.83965 19.649C4.44333 19.9955 5.12944 20.1752 5.82666 20.1692H18.1918C18.8906 20.1768 19.5786 19.998 20.184 19.6513C20.7895 19.3046 21.2901 18.8028 21.6337 18.1983C21.9802 17.6135 22.1629 16.9473 22.1629 16.2687C22.1629 15.5901 21.9802 14.9239 21.6337 14.3391L15.4327 3.77901C15.0864 3.18301 14.5869 2.68904 13.9854 2.3476C13.3839 2.00617 12.702 1.8295 12.0092 1.83566Z" fill="#616161"/>
                        <path fill-rule="evenodd" clip-rule="evenodd" d="M13.8549 6.41904C13.6336 6.1439 13.3528 5.92177 13.0333 5.76912C12.7138 5.61646 12.3639 5.5372 12.0094 5.5372C11.6548 5.5372 11.3049 5.61646 10.9854 5.76912C10.6659 5.92177 10.3851 6.1439 10.1638 6.41904C9.94093 6.6979 9.78652 7.02452 9.71284 7.37298C9.63916 7.72145 9.64823 8.08218 9.73934 8.42656L11.0866 13.9724C11.1366 14.1707 11.2518 14.3466 11.414 14.4723C11.5762 14.598 11.776 14.6663 11.9817 14.6663C12.1874 14.6663 12.3872 14.598 12.5493 14.4723C12.7115 14.3466 12.8268 14.1707 12.8768 13.9724L14.2701 8.41739C14.361 8.07507 14.3708 7.71649 14.2988 7.36977C14.2267 7.02306 14.0748 6.69764 13.8549 6.41904Z" fill="#616161"/>
                        <path d="M12.0092 18.3358C12.7736 18.3358 13.3933 17.7202 13.3933 16.9608C13.3933 16.2014 12.7736 15.5858 12.0092 15.5858C11.2447 15.5858 10.625 16.2014 10.625 16.9608C10.625 17.7202 11.2447 18.3358 12.0092 18.3358Z" fill="#616161"/>
                    </svg>