<svg width="24" height="23" viewBox="0 0 24 23" fill="none" xmlns="http://www.w3.org/2000/svg">
                        <path d="M18.1918 22.0025H5.82666C4.80306 22.0095 3.79603 21.7457 2.90897 21.2383C2.02191 20.7308 1.2868 19.998 0.7791 19.115C0.268933 18.2504 0 17.2663 0 16.2641C0 15.2619 0.268933 14.2779 0.7791 13.4133L6.98935 2.86234C7.50153 1.99125 8.23448 1.26864 9.11521 0.766444C9.99594 0.264251 10.9937 0 12.0092 0C13.0247 0 14.0225 0.264251 14.9032 0.766444C15.784 1.26864 16.5169 1.99125 17.0291 2.86234L23.2209 13.4133C23.7311 14.2779 24 15.2619 24 16.2641C24 17.2663 23.7311 18.2504 23.2209 19.115C22.7147 19.9953 21.9825 20.7264 21.099 21.2336C20.2155 21.7409 19.2123 22.0063 18.1918 22.0025ZM12.0092 1.83566C11.3165 1.8295 10.6345 2.00617 10.033 2.3476C9.43155 2.68904 8.9321 3.18301 8.58575 3.77901L2.39395 14.3391C2.04747 14.9239 1.86476 15.5901 1.86476 16.2687C1.86476 16.9473 2.04747 17.6135 2.39395 18.1983C2.73678 18.8015 3.23598 19.3024 3.83965 19.649C4.44333 19.9955 5.12944 20.1752 5.82666 20.1692H18.1918C18.8906 20.1768 19.5786 19.998 20.184 19.6513C20.7895 19.3046 21.2901 18.8028 21.6337 18.1983C21.9802 17.6135 22.1629 16.9473 22.1629 16.2687C22.1629 15.5901 21.9802 14.9239 21.6337 14.3391L15.4327 3.77901C15.0864 3.18301 14.5869 2.68904 13.9854 2.3476C13.3839 2.00617 12.702 1.8295 12.0092 1.83566Z" fill="#616161"/>
                        <path d="M12.0101 7.33596C11.9312 7.33523 11.8532 7.35313 11.7826 7.3882C11.7119 7.42326 11.6507 7.47447 11.6039 7.53763C11.5533 7.59778 11.5184 7.6694 11.5023 7.74615C11.4862 7.8229 11.4894 7.90241 11.5116 7.97763L12.0101 9.97599L12.5086 7.97763C12.5309 7.90241 12.5341 7.8229 12.518 7.74615C12.5019 7.6694 12.467 7.59778 12.4163 7.53763C12.3695 7.47447 12.3083 7.42326 12.2377 7.3882C12.1671 7.35313 12.0891 7.33523 12.0101 7.33596Z" fill="#616161"/>
                        <path d="M13.8554 6.41895C13.6341 6.14382 13.3533 5.92169 13.0338 5.76903C12.7143 5.61638 12.3644 5.53711 12.0098 5.53711C11.6553 5.53711 11.3054 5.61638 10.9859 5.76903C10.6664 5.92169 10.3856 6.14382 10.1643 6.41895C9.94142 6.69781 9.78701 7.02443 9.71333 7.3729C9.63965 7.72137 9.64872 8.08209 9.73983 8.42647L11.0871 13.9724C11.1371 14.1706 11.2523 14.3465 11.4145 14.4722C11.5767 14.5979 11.7765 14.6662 11.9822 14.6662C12.1879 14.6662 12.3877 14.5979 12.5498 14.4722C12.712 14.3465 12.8272 14.1706 12.8773 13.9724L14.2706 8.41731C14.3615 8.07498 14.3713 7.7164 14.2993 7.36969C14.2272 7.02297 14.0753 6.69755 13.8554 6.41895ZM12.5081 7.9773L12.0098 9.97566L11.5115 7.9773C11.4893 7.90208 11.4861 7.82257 11.5022 7.74582C11.5183 7.66907 11.5532 7.59744 11.6038 7.5373C11.6511 7.47468 11.7124 7.42386 11.7829 7.38886C11.8533 7.35385 11.9311 7.33563 12.0098 7.33563C12.0886 7.33563 12.1663 7.35385 12.2368 7.38886C12.3073 7.42386 12.3686 7.47468 12.4159 7.5373C12.4665 7.59744 12.5014 7.66907 12.5175 7.74582C12.5336 7.82257 12.5304 7.90208 12.5081 7.9773Z" fill="#616161"/>
                        <path d="M12.0092 18.336C12.7736 18.336 13.3933 17.7204 13.3933 16.961C13.3933 16.2016 12.7736 15.5859 12.0092 15.5859C11.2447 15.5859 10.625 16.2016 10.625 16.961C10.625 17.7204 11.2447 18.336 12.0092 18.336Z" fill="#616161"/>
                    </svg>