<svg width="20" height="19" viewBox="0 0 20 19" fill="none" xmlns="http://www.w3.org/2000/svg">
<path d="M10.833 2.37467V14.7136L15.3032 10.4671C15.6284 10.1579 16.1561 10.1579 16.4815 10.4669C16.8069 10.776 16.8069 11.2776 16.4815 11.5867L10.589 17.1844C10.5503 17.2212 10.5076 17.2541 10.4621 17.2829C10.4411 17.2962 10.4184 17.3055 10.3965 17.317C10.3707 17.3301 10.3461 17.3451 10.3188 17.3556C10.2907 17.3669 10.2615 17.3732 10.2324 17.3811C10.2092 17.3876 10.1874 17.3962 10.1634 17.4007C10.1092 17.411 10.0544 17.4163 9.99965 17.4163C9.99902 17.4163 9.9984 17.4161 9.99777 17.4161C9.94381 17.4159 9.88965 17.4108 9.83652 17.4007C9.81152 17.396 9.7884 17.3871 9.76402 17.3801C9.73631 17.3724 9.70819 17.3665 9.68131 17.3558C9.65236 17.3443 9.62611 17.3289 9.59881 17.3146C9.5784 17.3039 9.55756 17.2954 9.53798 17.2831C9.49194 17.2542 9.44902 17.221 9.41006 17.184L3.51819 11.5865C3.19277 11.2774 3.19277 10.776 3.51798 10.4669C3.8434 10.1577 4.37111 10.1577 4.69652 10.4669L9.16631 14.7134V2.37467C9.16631 1.93748 9.53944 1.58301 9.99965 1.58301C10.4599 1.58301 10.833 1.93748 10.833 2.37467Z" fill="#F5AA01"/>
</svg>
