<svg width="16" height="16" viewBox="0 0 16 16" fill="none" xmlns="http://www.w3.org/2000/svg">
<path d="M15.9258 13.4966C15.556 13.891 15.1464 14.2478 14.7038 14.5605C14.2656 14.87 13.7963 15.1352 13.3025 15.3495C12.8168 15.5606 12.3047 15.7242 11.7726 15.8345C11.2546 15.9419 10.7194 15.9984 10.1727 15.9984C9.10021 15.9984 8.07693 15.7828 7.1431 15.3923C6.17272 14.9865 5.29994 14.3923 4.5701 13.6556L4.53834 13.6235V13.6217C4.07162 13.1451 3.66374 12.6095 3.32676 12.0269C3.00183 11.4651 2.74254 10.8587 2.5596 10.2191H0.1085H0V10.1096V9.33957V9.23003H0.1085H2.34308C2.31533 9.0492 2.29361 8.86664 2.27821 8.68253C2.25927 8.45699 2.2496 8.22903 2.2496 7.99933C2.2496 7.77011 2.25936 7.54253 2.27831 7.31718C2.29381 7.13259 2.31572 6.94945 2.34346 6.76824H0.1085H0V6.6587V5.88865V5.77921H0.1085H2.55979C2.74273 5.13957 3.00202 4.53334 3.32695 3.97155C3.66393 3.389 4.07181 2.85329 4.53853 2.37669V2.37495L4.57029 2.34279C5.30013 1.60597 6.17292 1.01172 7.14329 0.60603C8.07702 0.215598 9.10031 0 10.1728 0C10.6972 0 11.2107 0.0518709 11.7081 0.15088C12.2175 0.252207 12.7108 0.403473 13.1824 0.599268C13.6627 0.798252 14.1188 1.04321 14.5452 1.32826C14.9766 1.61669 15.3781 1.94646 15.7439 2.31168L15.8211 2.38867L15.7452 2.46614L15.209 3.01363L15.1328 3.09149L15.056 3.01489C14.734 2.69333 14.381 2.40306 14.0025 2.1496C13.6284 1.89904 13.2296 1.6844 12.811 1.51111C12.4012 1.34092 11.9699 1.20926 11.522 1.12059C11.0864 1.03433 10.6352 0.989121 10.1727 0.989121C9.23167 0.989121 8.33459 1.17796 7.51701 1.51981C6.66786 1.87489 5.9032 2.39572 5.26282 3.04222L5.18895 3.1167L5.18857 3.11641C4.82289 3.49699 4.4994 3.91988 4.22595 4.37706C3.9635 4.81578 3.74736 5.28552 3.58413 5.77931H11.9432H12.0517V5.88885V6.65889V6.76843H11.9432H3.33556C3.30274 6.95553 3.27729 7.14418 3.25968 7.33418C3.23959 7.55036 3.22935 7.77223 3.22935 7.99942C3.22935 8.22661 3.23959 8.44829 3.25968 8.66447C3.27739 8.85447 3.30274 9.04312 3.33556 9.23012H11.9434H12.0519V9.33966V10.1097V10.2192H11.9434H3.58423C3.74717 10.7129 3.96331 11.1828 4.22575 11.6215C4.49863 12.0777 4.82183 12.5001 5.18742 12.8807L5.18761 12.8804L5.26282 12.9563C5.9032 13.6028 6.66796 14.1237 7.51701 14.4787C8.33459 14.8207 9.23167 15.0094 10.1727 15.0094C10.6548 15.0094 11.1243 14.9603 11.5765 14.8666C12.0408 14.7706 12.489 14.6271 12.9156 14.4417C13.3524 14.2521 13.7651 14.0195 14.1479 13.7497C14.5353 13.4768 14.8937 13.1647 15.2174 12.8195L15.2914 12.7406L15.37 12.8156L15.9214 13.3423L16 13.4174L15.9258 13.4966Z" fill="#616161"/>
</svg>
