<svg width="20" height="25" viewBox="0 0 20 25" fill="none" xmlns="http://www.w3.org/2000/svg">
<path d="M9.99965 6.14001C9.28044 6.14001 8.57739 6.34438 7.97939 6.72727C7.38139 7.11016 6.91531 7.65438 6.64008 8.2911C6.36486 8.92782 6.29284 9.62845 6.43315 10.3044C6.57346 10.9803 6.91979 11.6012 7.42835 12.0886C7.9369 12.5759 8.58484 12.9078 9.29023 13.0422C9.99561 13.1767 10.7268 13.1077 11.3912 12.8439C12.0557 12.5802 12.6236 12.1335 13.0232 11.5605C13.4227 10.9875 13.636 10.3138 13.636 9.62459C13.636 8.70042 13.2529 7.81411 12.5709 7.16062C11.889 6.50714 10.9641 6.14001 9.99965 6.14001V6.14001ZM9.99965 11.3669C9.64004 11.3669 9.28852 11.2647 8.98952 11.0732C8.69052 10.8818 8.45748 10.6097 8.31987 10.2913C8.18225 9.97297 8.14625 9.62266 8.2164 9.28469C8.28656 8.94671 8.45972 8.63627 8.714 8.39261C8.96828 8.14894 9.29224 7.98301 9.64494 7.91578C9.99763 7.84855 10.3632 7.88306 10.6954 8.01493C11.0277 8.14679 11.3116 8.37011 11.5114 8.65663C11.7112 8.94314 11.8178 9.28 11.8178 9.62459C11.8178 10.0867 11.6263 10.5298 11.2853 10.8566C10.9443 11.1833 10.4819 11.3669 9.99965 11.3669V11.3669Z" fill="#616161"/>
<path d="M10 0.0419922C7.34784 0.0419922 4.8043 1.05158 2.92893 2.84866C1.05357 4.64575 0 7.08311 0 9.62457C0 17.822 9.09091 24.0159 9.48182 24.2772L10 24.6257L10.5182 24.2772C10.9091 24.0159 20 17.822 20 9.62457C20 7.08311 18.9464 4.64575 17.0711 2.84866C15.1957 1.05158 12.6522 0.0419922 10 0.0419922ZM10 22.4739C8.11818 21.0627 1.81818 15.8532 1.81818 9.62457C1.81818 7.5452 2.68019 5.55099 4.21458 4.08065C5.74897 2.61031 7.83005 1.78428 10 1.78428C12.17 1.78428 14.251 2.61031 15.7854 4.08065C17.3198 5.55099 18.1818 7.5452 18.1818 9.62457C18.1818 15.8532 11.8818 21.0627 10 22.4739Z" fill="#616161"/>
</svg>
