<svg width="19" height="23" viewBox="0 0 19 23" fill="none" xmlns="http://www.w3.org/2000/svg">
                                        <path d="M11.4512 1.00195H3.45117C2.92074 1.00195 2.41203 1.21267 2.03696 1.58774C1.66189 1.96281 1.45117 2.47152 1.45117 3.00195V19.002C1.45117 19.5324 1.66189 20.0411 2.03696 20.4162C2.41203 20.7912 2.92074 21.002 3.45117 21.002H15.4512C15.9816 21.002 16.4903 20.7912 16.8654 20.4162C17.2405 20.0411 17.4512 19.5324 17.4512 19.002V7.00195L11.4512 1.00195Z" fill="#F5AA01"/>
                                        <path d="M11.4512 1.00195V7.00195H17.4512" fill="#F5AA01"/>
                                        <path d="M11.4512 1.00195H3.45117C2.92074 1.00195 2.41203 1.21267 2.03696 1.58774C1.66189 1.96281 1.45117 2.47152 1.45117 3.00195V19.002C1.45117 19.5324 1.66189 20.0411 2.03696 20.4162C2.41203 20.7912 2.92074 21.002 3.45117 21.002H15.4512C15.9816 21.002 16.4903 20.7912 16.8654 20.4162C17.2405 20.0411 17.4512 19.5324 17.4512 19.002V7.00195H11.4512V1.00195Z" fill="#F5AA01"/>
                                        <path d="M11.4512 1.00195H3.45117C2.92074 1.00195 2.41203 1.21267 2.03696 1.58774C1.66189 1.96281 1.45117 2.47152 1.45117 3.00195V19.002C1.45117 19.5324 1.66189 20.0411 2.03696 20.4162C2.41203 20.7912 2.92074 21.002 3.45117 21.002H15.4512C15.9816 21.002 16.4903 20.7912 16.8654 20.4162C17.2405 20.0411 17.4512 19.5324 17.4512 19.002V7.00195M11.4512 1.00195L17.4512 7.00195M11.4512 1.00195V7.00195H17.4512M6.45117 14.002H12.4512" stroke="#616161" stroke-width="2" stroke-linecap="round" stroke-linejoin="round"/>
                                    </svg>