<svg width="56" height="56" viewBox="0 0 56 56" fill="none" xmlns="http://www.w3.org/2000/svg">
<path d="M12.7218 5.13459C17.2442 2.11285 22.561 0.5 28 0.5C35.2935 0.5 42.2882 3.39731 47.4454 8.55456C52.6027 13.7118 55.5 20.7065 55.5 28C55.5 33.439 53.8872 38.7558 50.8654 43.2782C47.8437 47.8005 43.5488 51.3253 38.5238 53.4067C33.4988 55.4881 27.9695 56.0327 22.635 54.9716C17.3006 53.9105 12.4005 51.2914 8.55458 47.4454C4.70863 43.5995 2.08951 38.6995 1.02842 33.365C-0.0326762 28.0305 0.511916 22.5012 2.59333 17.4762C4.67474 12.4512 8.19948 8.15632 12.7218 5.13459ZM28 51.5C23.3522 51.5 18.8087 50.1217 14.9441 47.5395C11.0796 44.9573 8.0675 41.2871 6.28884 36.9931C4.51018 32.699 4.04481 27.9739 4.95156 23.4154C5.85831 18.8568 8.09647 14.6695 11.383 11.383C14.6695 8.09646 18.8568 5.8583 23.4154 4.95155C27.9739 4.04479 32.699 4.51017 36.9931 6.28883C41.2871 8.06749 44.9573 11.0795 47.5395 14.9441C50.1218 18.8087 51.5 23.3521 51.5 28C51.5 34.2326 49.0241 40.2099 44.617 44.617C40.2099 49.0241 34.2326 51.5 28 51.5ZM14.3885 48.371C18.4175 51.0631 23.1544 52.5 28 52.5C34.4978 52.5 40.7295 49.9188 45.3241 45.3241C49.9188 40.7295 52.5 34.4978 52.5 28C52.5 23.1544 51.0631 18.4175 48.371 14.3885C45.6789 10.3595 41.8525 7.2193 37.3758 5.36495C32.899 3.5106 27.9728 3.02542 23.2203 3.97076C18.4678 4.9161 14.1023 7.2495 10.6759 10.6759C7.24951 14.1023 4.91611 18.4678 3.97077 23.2203C3.02544 27.9728 3.51062 32.899 5.36496 37.3757C7.21931 41.8525 10.3595 45.6789 14.3885 48.371Z" fill="#EB840B" stroke="white"/>
<path d="M26 26.5H26.5V26V16.5H29.5V26V26.5H30H39.5V29.5H30H29.5V30V39.5H26.5V30V29.5H26H16.5V26.5H26Z" fill="#EB840B" stroke="white"/>
</svg>
