<svg width="208" height="245" viewBox="0 0 208 245" fill="none" xmlns="http://www.w3.org/2000/svg">
<path opacity="0.2" fill-rule="evenodd" clip-rule="evenodd" d="M207.066 245H5C28.3137 207.292 64.8985 183 106.033 183C147.167 183 183.752 207.292 207.066 245Z" fill="url(#paint0_linear)"/>
<path d="M47.849 170.893C43.5855 174.319 31.0463 178.031 27.4719 173.582C23.8976 169.133 24.4562 162.75 28.7198 159.324C32.9833 155.899 37.594 158.129 41.1683 162.578C44.7427 167.027 52.1126 167.468 47.849 170.893Z" fill="url(#paint1_linear)"/>
<path d="M145 144.14C145 148.083 132.251 154 128.298 154C124.345 154 130.684 148.083 130.684 144.14C130.684 140.197 133.889 137 137.842 137C141.795 137 145 140.197 145 144.14Z" fill="url(#paint2_linear)"/>
<path d="M6.05177 113.232C9.39409 111.139 21.1742 118.805 23.272 122.156C25.3698 125.507 16.9909 123.274 13.6486 125.366C10.3063 127.459 5.89619 126.439 3.79838 123.088C1.70058 119.737 2.70946 115.324 6.05177 113.232Z" fill="url(#paint3_linear)"/>
<circle cx="150.5" cy="90.5" r="5.5" fill="#F5AA01"/>
<path d="M83.4451 196.479H55.6327V215.629H107.364V182.604H95.3263H67.64H55.6327V187.474H83.4451C84.3735 187.474 85.1257 188.226 85.1257 189.154C85.1257 190.082 84.373 190.834 83.4451 190.834H55.6327V193.118H83.4451C84.3735 193.118 85.1257 193.87 85.1257 194.798C85.1257 195.727 84.373 196.479 83.4451 196.479ZM89.6803 187.474H94.3589C95.2868 187.474 96.039 188.226 96.039 189.154C96.039 190.082 95.2863 190.834 94.3589 190.834H89.6803C88.7524 190.834 88.0002 190.082 88.0002 189.154C88.0002 188.226 88.7524 187.474 89.6803 187.474ZM89.6803 193.118H94.3589C95.2868 193.118 96.039 193.871 96.039 194.799C96.039 195.727 95.2863 196.479 94.3589 196.479H89.6803C88.7524 196.479 88.0002 195.726 88.0002 194.799C88.0002 193.871 88.7524 193.118 89.6803 193.118Z" fill="url(#paint4_linear)"/>
<path d="M86.9205 114.897L93.1163 110.427H85.4408C84.7101 110.427 84.0635 109.956 83.8406 109.261L81.5062 101.998L79.1512 109.265C78.9268 109.958 78.2812 110.428 77.5526 110.428H69.9093L76.1051 114.898C76.6989 115.326 76.9469 116.09 76.7184 116.785L74.3184 124.093L80.5239 119.579C81.1137 119.149 81.9135 119.149 82.5033 119.58L88.6868 124.093L86.3052 116.781C86.0797 116.086 86.3282 115.325 86.9205 114.897Z" fill="#F5AA01"/>
<path d="M115.095 79.6258V78.9674H76.4943C75.5663 78.9674 74.8136 78.2152 74.8136 77.2867C74.8136 76.3588 75.5663 75.6061 76.4943 75.6061H115.095V70.1123H47.9V79.6253C47.9 80.5537 47.1473 81.3059 46.2194 81.3059H33.4635C33.4635 81.3059 33.4635 100.37 33.4635 104.506C33.4635 108.641 34.8551 112.716 37.3828 115.979C39.7525 119.099 43.1189 121.447 46.8701 122.605C47.5213 122.806 47.9871 123.381 48.0486 124.059C48.6537 130.746 51.2725 137.071 55.6227 142.348C59.9775 147.609 65.7388 151.389 72.2819 153.275C72.8778 153.447 73.3308 153.933 73.4604 154.54C74.3115 158.541 74.2362 162.801 73.236 167.203C72.4213 170.85 70.9933 174.7 68.7654 179.243H94.1906C91.9827 174.823 90.5701 171.046 89.7564 167.417C88.7244 162.893 88.6624 158.676 89.5694 154.532C89.7005 153.928 90.153 153.446 90.7453 153.276C97.2664 151.395 103.028 147.605 107.406 142.313C111.752 137.073 114.37 130.762 114.979 124.058C115.04 123.381 115.504 122.808 116.154 122.605C119.88 121.447 123.248 119.096 125.637 115.985C128.183 112.634 129.53 108.663 129.53 104.506V83V81.3059H128H116.777C115.848 81.3064 115.095 80.5542 115.095 79.6258ZM47.9 115.856C47.9 116.443 47.5926 116.989 47.0889 117.293C46.8219 117.455 46.5207 117.537 46.2194 117.537C45.9519 117.537 45.6839 117.473 45.439 117.344C43.2685 116.207 41.3676 114.513 39.9416 112.445C38.2149 109.911 37.3054 106.974 37.3054 103.946C37.3054 100.917 37.3054 87.3593 37.3054 87.3593C37.3054 86.4313 38.0576 85.6786 38.9855 85.6786H46.2189C47.1468 85.6786 47.8995 86.4313 47.8995 87.3593L47.9 115.856ZM58.3184 77.2867C58.3184 76.3588 59.0711 75.6061 59.999 75.6061H68.169C69.0969 75.6061 69.8496 76.3588 69.8496 77.2867C69.8496 78.2152 69.0969 78.9674 68.169 78.9674H59.999C59.0711 78.9674 58.3184 78.2152 58.3184 77.2867ZM72.0872 129.873C71.7921 130.087 71.4452 130.194 71.0983 130.194C70.7509 130.194 70.404 130.087 70.1089 129.872C69.5197 129.442 69.2742 128.682 69.5017 127.989L73.1422 116.903L63.7246 110.109C63.1333 109.682 62.8848 108.924 63.1087 108.229C63.3331 107.536 63.9787 107.066 64.7078 107.066H76.3313L79.9145 96.0068C80.1389 95.3135 80.785 94.8442 81.5136 94.8442H81.5157C82.2448 94.8452 82.8904 95.3166 83.1133 96.0104L86.6657 107.066H98.3189C99.0485 107.066 99.6946 107.536 99.9186 108.229C100.143 108.923 99.894 109.682 99.3027 110.109L89.8824 116.905L93.4932 127.993C93.7187 128.687 93.4722 129.446 92.8825 129.874C92.2927 130.302 91.4939 130.301 90.9047 129.871L81.5121 123.016L72.0872 129.873ZM108.97 126.907L108.94 127.209C108.498 131.669 107.758 139.133 88.8285 149.897C88.5666 150.046 88.2807 150.117 87.9994 150.117C87.4148 150.117 86.8465 149.812 86.5371 149.267C86.078 148.46 86.3603 147.435 87.1673 146.975C104.584 137.072 105.217 130.69 105.594 126.877L105.627 126.565C105.72 125.641 106.545 124.971 107.469 125.064C108.392 125.158 109.065 125.982 108.97 126.907ZM125.69 87.3587V103.945C125.69 107.026 124.778 109.967 123.05 112.45C121.688 114.476 119.783 116.176 117.557 117.344C117.313 117.472 117.045 117.537 116.777 117.537C116.475 117.537 116.174 117.455 115.907 117.293C115.404 116.99 115.096 116.444 115.096 115.856V87.3587C115.096 86.4308 115.849 85.6781 116.777 85.6781H124.009C124.937 85.6781 125.69 86.4303 125.69 87.3587Z" fill="url(#paint5_linear)"/>
<path d="M81.5151 21.3199C82.4435 21.3199 83.1957 20.5672 83.1957 19.6393V1.68063C83.1957 0.752696 82.443 0 81.5151 0C80.5872 0 79.8345 0.752696 79.8345 1.68063V19.6393C79.8345 20.5672 80.5872 21.3199 81.5151 21.3199Z" fill="#EB840B"/>
<path d="M154.797 39.852C154.356 39.0358 153.336 38.732 152.519 39.1747L135.994 48.1235C135.177 48.5652 134.874 49.5853 135.316 50.4016C135.621 50.9631 136.199 51.2818 136.795 51.2818C137.066 51.2818 137.34 51.2168 137.594 51.0789L154.12 42.1301C154.935 41.6879 155.239 40.6683 154.797 39.852Z" fill="#EB840B"/>
<path d="M27.0043 48.1233L10.4808 39.1744C9.66458 38.7322 8.64493 39.0356 8.20325 39.8518C7.76106 40.6675 8.0644 41.6877 8.88012 42.1299L25.4036 51.0787C25.6582 51.2165 25.9324 51.2816 26.2024 51.2816C26.7993 51.2816 27.3773 50.9629 27.6822 50.4013C28.1233 49.5851 27.82 48.5649 27.0043 48.1233Z" fill="#EB840B"/>
<path d="M111.065 31.483C111.339 31.6515 111.643 31.7325 111.944 31.7325C112.508 31.7325 113.059 31.4481 113.377 30.9316L119.208 21.4535C119.694 20.6629 119.448 19.6279 118.657 19.1416C117.867 18.6554 116.831 18.9013 116.345 19.6924L110.514 29.1706C110.028 29.9612 110.274 30.9967 111.065 31.483Z" fill="#F5AA01"/>
<path d="M49.6236 30.9315C49.9413 31.448 50.4921 31.7323 51.0567 31.7323C51.357 31.7323 51.6613 31.6514 51.9355 31.4828C52.7261 30.9965 52.9725 29.961 52.4863 29.1704L46.6553 19.6923C46.1686 18.9017 45.1335 18.6542 44.3429 19.1415C43.5528 19.6277 43.3058 20.6627 43.7926 21.4533L49.6236 30.9315Z" fill="#F5AA01"/>
<path d="M81.5151 47.4469C82.4435 47.4469 83.1957 46.6947 83.1957 45.7663V35.6635C83.1957 34.7351 82.443 33.9829 81.5151 33.9829C80.5872 33.9829 79.8345 34.7351 79.8345 35.6635V45.7663C79.8345 46.6947 80.5872 47.4469 81.5151 47.4469Z" fill="#F5AA01"/>
<path d="M110.794 64.3765C111.08 64.3765 111.37 64.3033 111.636 64.1495L120.397 59.0682C121.199 58.6024 121.473 57.5741 121.007 56.7717C120.542 55.9688 119.513 55.6946 118.71 56.1609L109.95 61.2423C109.147 61.708 108.873 62.7364 109.339 63.5388C109.65 64.0768 110.215 64.3765 110.794 64.3765Z" fill="#F5AA01"/>
<path d="M42.6046 59.0677L51.3648 64.149C51.6303 64.3027 51.9198 64.376 52.2062 64.376C52.7857 64.376 53.3498 64.0763 53.6614 63.5388C54.1271 62.7359 53.8535 61.7075 53.0511 61.2423L44.2903 56.1609C43.4874 55.6946 42.459 55.9688 41.9938 56.7717C41.5275 57.5736 41.8011 58.6019 42.6046 59.0677Z" fill="#F5AA01"/>
<path d="M96.7913 53.1131C97.0572 53.2668 97.3462 53.3396 97.6321 53.3396C98.2126 53.3396 98.7768 53.0393 99.0883 52.5013L102.175 47.1705C102.641 46.367 102.367 45.3387 101.563 44.8739C100.761 44.4092 99.7318 44.6823 99.2666 45.4862L96.1795 50.8171C95.7137 51.62 95.9884 52.6479 96.7913 53.1131Z" fill="#EB840B"/>
<path d="M63.9094 52.5005C64.2205 53.039 64.7851 53.3392 65.3651 53.3392C65.6505 53.3392 65.9405 53.2665 66.2054 53.1133C67.0083 52.648 67.283 51.6202 66.8183 50.8173L63.7332 45.4864C63.2684 44.6835 62.2406 44.4088 61.4372 44.8736C60.6332 45.3383 60.3591 46.3667 60.8244 47.1696L63.9094 52.5005Z" fill="#EB840B"/>
<path d="M112.942 218.99H109.044H53.9516H50.0503L38.5831 220.867C37.6551 220.867 36.903 221.62 36.903 222.547C36.903 223.476 37.6557 224.228 38.5831 224.228H127.628C128.557 224.228 129.308 223.475 129.308 222.547C129.308 221.619 128.556 220.867 127.628 220.867" fill="#EB840B"/>
<defs>
<linearGradient id="paint0_linear" x1="5" y1="194.47" x2="41.0181" y2="295.733" gradientUnits="userSpaceOnUse">
<stop stop-color="#F5AA01"/>
<stop offset="1" stop-color="#EB840B"/>
</linearGradient>
<linearGradient id="paint1_linear" x1="33.7069" y1="155.317" x2="32.246" y2="179.978" gradientUnits="userSpaceOnUse">
<stop stop-color="#F5AA01"/>
<stop offset="1" stop-color="#EB840B"/>
</linearGradient>
<linearGradient id="paint2_linear" x1="127" y1="140.145" x2="142.575" y2="154.371" gradientUnits="userSpaceOnUse">
<stop stop-color="#F5AA01"/>
<stop offset="1" stop-color="#EB840B"/>
</linearGradient>
<linearGradient id="paint3_linear" x1="12.2173" y1="130.608" x2="16.0103" y2="109.858" gradientUnits="userSpaceOnUse">
<stop stop-color="#F5AA01"/>
<stop offset="1" stop-color="#EB840B"/>
</linearGradient>
<linearGradient id="paint4_linear" x1="55.6327" y1="188.714" x2="84.6869" y2="227.974" gradientUnits="userSpaceOnUse">
<stop stop-color="#F5AA01"/>
<stop offset="1" stop-color="#EB840B"/>
</linearGradient>
<linearGradient id="paint5_linear" x1="33.4635" y1="90.3015" x2="130.172" y2="163.739" gradientUnits="userSpaceOnUse">
<stop stop-color="#F5AA01"/>
<stop offset="1" stop-color="#EB840B"/>
</linearGradient>
</defs>
</svg>
