<svg width="253" height="247" viewBox="0 0 253 247" fill="none" xmlns="http://www.w3.org/2000/svg">
<path opacity="0.2" fill-rule="evenodd" clip-rule="evenodd" d="M252.066 247H50C73.3137 209.292 109.898 185 151.033 185C192.167 185 228.752 209.292 252.066 247Z" fill="url(#paint0_linear)"/>
<path d="M157.942 220.99H154.044H98.9515H95.0502L83.583 222.867C82.655 222.867 81.9028 223.62 81.9028 224.547C81.9028 225.476 82.6555 226.228 83.583 226.228H172.628C173.557 226.228 174.308 225.475 174.308 224.547C174.308 223.619 173.556 222.867 172.628 222.867" fill="#AAAAAA"/>
<path d="M128.445 198.479H100.633V217.629H152.364V184.604H140.326H112.64H100.633V189.474H128.445C129.373 189.474 130.126 190.226 130.126 191.154C130.126 192.082 129.373 192.834 128.445 192.834H100.633V195.118H128.445C129.373 195.118 130.126 195.87 130.126 196.798C130.126 197.727 129.373 198.479 128.445 198.479ZM134.68 189.474H139.359C140.287 189.474 141.039 190.226 141.039 191.154C141.039 192.082 140.286 192.834 139.359 192.834H134.68C133.752 192.834 133 192.082 133 191.154C133 190.226 133.752 189.474 134.68 189.474ZM134.68 195.118H139.359C140.287 195.118 141.039 195.871 141.039 196.799C141.039 197.727 140.286 198.479 139.359 198.479H134.68C133.752 198.479 133 197.726 133 196.799C133 195.871 133.752 195.118 134.68 195.118Z" fill="#ABABAB"/>
<path d="M160.095 81.6258V80.9674H121.494C120.566 80.9674 119.814 80.2152 119.814 79.2867C119.814 78.3588 120.566 77.6061 121.494 77.6061H160.095V72.1123H92.9V81.6253C92.9 82.5537 92.1473 83.3059 91.2194 83.3059H78.4635C78.4635 83.3059 78.4635 102.37 78.4635 106.506C78.4635 110.641 79.8551 114.716 82.3828 117.979C84.7525 121.099 88.1189 123.447 91.8701 124.605C92.5213 124.806 92.9871 125.381 93.0486 126.059C93.6537 132.746 96.2725 139.071 100.623 144.348C104.977 149.609 110.739 153.389 117.282 155.275C117.878 155.447 118.331 155.933 118.46 156.54C119.312 160.541 119.236 164.801 118.236 169.203C117.421 172.85 115.993 176.7 113.765 181.243H139.191C136.983 176.823 135.57 173.046 134.756 169.417C133.724 164.893 133.662 160.676 134.569 156.532C134.701 155.928 135.153 155.446 135.745 155.276C142.266 153.395 148.028 149.605 152.406 144.313C156.752 139.073 159.37 132.762 159.979 126.058C160.04 125.381 160.504 124.808 161.154 124.605C164.88 123.447 168.248 121.096 170.637 117.985C173.183 114.634 174.53 110.663 174.53 106.506V85V83.3059H173H161.777C160.848 83.3064 160.095 82.5542 160.095 81.6258ZM92.9 117.856C92.9 118.443 92.5926 118.989 92.0889 119.293C91.8219 119.455 91.5207 119.537 91.2194 119.537C90.9519 119.537 90.6839 119.473 90.439 119.344C88.2685 118.207 86.3676 116.513 84.9416 114.445C83.2149 111.911 82.3054 108.974 82.3054 105.946C82.3054 102.917 82.3054 89.3593 82.3054 89.3593C82.3054 88.4313 83.0576 87.6786 83.9855 87.6786H91.2189C92.1468 87.6786 92.8995 88.4313 92.8995 89.3593L92.9 117.856ZM103.318 79.2867C103.318 78.3588 104.071 77.6061 104.999 77.6061H113.169C114.097 77.6061 114.85 78.3588 114.85 79.2867C114.85 80.2152 114.097 80.9674 113.169 80.9674H104.999C104.071 80.9674 103.318 80.2152 103.318 79.2867ZM117.087 131.873C116.792 132.087 116.445 132.194 116.098 132.194C115.751 132.194 115.404 132.087 115.109 131.872C114.52 131.442 114.274 130.682 114.502 129.989L118.142 118.903L108.725 112.109C108.133 111.682 107.885 110.924 108.109 110.229C108.333 109.536 108.979 109.066 109.708 109.066H121.331L124.914 98.0068C125.139 97.3135 125.785 96.8442 126.514 96.8442H126.516C127.245 96.8452 127.89 97.3166 128.113 98.0104L131.666 109.066H143.319C144.049 109.066 144.695 109.536 144.919 110.229C145.143 110.923 144.894 111.682 144.303 112.109L134.882 118.905L138.493 129.993C138.719 130.687 138.472 131.446 137.882 131.874C137.293 132.302 136.494 132.301 135.905 131.871L126.512 125.016L117.087 131.873ZM153.97 128.907L153.94 129.209C153.498 133.669 152.758 141.133 133.828 151.897C133.567 152.046 133.281 152.117 132.999 152.117C132.415 152.117 131.847 151.812 131.537 151.267C131.078 150.46 131.36 149.435 132.167 148.975C149.584 139.072 150.217 132.69 150.594 128.877L150.627 128.565C150.72 127.641 151.545 126.971 152.469 127.064C153.392 127.158 154.065 127.982 153.97 128.907ZM170.69 89.3587V105.945C170.69 109.026 169.778 111.967 168.05 114.45C166.688 116.476 164.783 118.176 162.557 119.344C162.313 119.472 162.045 119.537 161.777 119.537C161.475 119.537 161.174 119.455 160.907 119.293C160.404 118.99 160.096 118.444 160.096 117.856V89.3587C160.096 88.4308 160.849 87.6781 161.777 87.6781H169.009C169.937 87.6781 170.69 88.4303 170.69 89.3587Z" fill="#AAAAAA"/>
<mask id="mask0" mask-type="alpha" maskUnits="userSpaceOnUse" x="0" y="0" width="242" height="242">
<circle cx="121" cy="121" r="121" fill="#C4C4C4"/>
</mask>
<g mask="url(#mask0)">
<circle cx="136" cy="43" r="9" fill="#F5AA01"/>
<circle cx="173" cy="57" r="9" fill="#F5AA01"/>
<circle cx="194" cy="97" r="12" fill="#EB840B"/>
<circle cx="186" cy="131" r="9" fill="#F5AA01"/>
<circle cx="200" cy="160" r="6" fill="#EB840B"/>
<circle cx="213" cy="117" r="6" fill="#EB840B"/>
<circle cx="206" cy="66" r="6" fill="#EB840B"/>
<circle cx="165" cy="34" r="6" fill="#EB840B"/>
<circle cx="175" cy="171" r="12" fill="#EB840B"/>
<circle r="12" transform="matrix(-0.995023 0.0996485 0.0996485 0.995023 97.662 45.8924)" fill="#EB840B"/>
<circle r="9" transform="matrix(-0.995023 0.0996485 0.0996485 0.995023 64.9275 60.2261)" fill="#F5AA01"/>
<circle r="12" transform="matrix(-0.995023 0.0996485 0.0996485 0.995023 48.018 102.119)" fill="#EB840B"/>
<circle r="9" transform="matrix(-0.995023 0.0996485 0.0996485 0.995023 59.3659 135.153)" fill="#F5AA01"/>
<circle r="6" transform="matrix(-0.995023 0.0996485 0.0996485 0.995023 48.3258 165.403)" fill="#EB840B"/>
<circle r="6" transform="matrix(-0.995023 0.0996485 0.0996485 0.995023 31.1055 123.913)" fill="#EB840B"/>
<circle r="6" transform="matrix(-0.995023 0.0996485 0.0996485 0.995023 32.9886 72.4694)" fill="#EB840B"/>
<circle r="6" transform="matrix(-0.995023 0.0996485 0.0996485 0.995023 70.5958 36.5431)" fill="#EB840B"/>
<circle r="6" transform="matrix(-0.995023 0.0996485 0.0996485 0.995023 119.908 25.154)" fill="#EB840B"/>
<circle r="12" transform="matrix(-0.995023 0.0996485 0.0996485 0.995023 74.2973 173.858)" fill="#EB840B"/>
</g>
<defs>
<linearGradient id="paint0_linear" x1="50" y1="196.47" x2="86.0181" y2="297.733" gradientUnits="userSpaceOnUse">
<stop stop-color="#F5AA01"/>
<stop offset="1" stop-color="#EB840B"/>
</linearGradient>
</defs>
</svg>
