<svg width="21" height="23" viewBox="0 0 21 23" fill="none" xmlns="http://www.w3.org/2000/svg">
                                <path d="M16.4512 7.00195C18.108 7.00195 19.4512 5.65881 19.4512 4.00195C19.4512 2.3451 18.108 1.00195 16.4512 1.00195C14.7943 1.00195 13.4512 2.3451 13.4512 4.00195C13.4512 5.65881 14.7943 7.00195 16.4512 7.00195Z" fill="#F5AA01"/>
                                <path d="M4.45117 14.002C5.55695 14.002 6.523 13.4037 7.04329 12.5132C7.30259 12.0694 7.45117 11.553 7.45117 11.002C7.45117 10.4509 7.30259 9.93451 7.04329 9.49072C6.523 8.60021 5.55695 8.00195 4.45117 8.00195C2.79432 8.00195 1.45117 9.3451 1.45117 11.002C1.45117 12.6588 2.79432 14.002 4.45117 14.002Z" fill="#F5AA01"/>
                                <path d="M16.4512 21.002C18.108 21.002 19.4512 19.6588 19.4512 18.002C19.4512 16.3451 18.108 15.002 16.4512 15.002C14.7943 15.002 13.4512 16.3451 13.4512 18.002C13.4512 19.6588 14.7943 21.002 16.4512 21.002Z" fill="#F5AA01"/>
                                <path d="M7.04329 12.5132C7.30259 12.0694 7.45117 11.553 7.45117 11.002C7.45117 10.4509 7.30259 9.93451 7.04329 9.49072C6.523 8.60021 5.55695 8.00195 4.45117 8.00195C2.79432 8.00195 1.45117 9.3451 1.45117 11.002C1.45117 12.6588 2.79432 14.002 4.45117 14.002C5.55695 14.002 6.523 13.4037 7.04329 12.5132Z" fill="#F5AA01"/>
                                <path d="M7.04117 12.512L7.04329 12.5132M13.8712 16.492L7.04329 12.5132M13.8612 5.51195L7.04329 9.49072M7.04117 9.49195L7.04329 9.49072M7.04329 12.5132C7.30259 12.0694 7.45117 11.553 7.45117 11.002C7.45117 10.4509 7.30259 9.93451 7.04329 9.49072M7.04329 12.5132C6.523 13.4037 5.55695 14.002 4.45117 14.002C2.79432 14.002 1.45117 12.6588 1.45117 11.002C1.45117 9.3451 2.79432 8.00195 4.45117 8.00195C5.55695 8.00195 6.523 8.60021 7.04329 9.49072M19.4512 4.00195C19.4512 5.65881 18.108 7.00195 16.4512 7.00195C14.7943 7.00195 13.4512 5.65881 13.4512 4.00195C13.4512 2.3451 14.7943 1.00195 16.4512 1.00195C18.108 1.00195 19.4512 2.3451 19.4512 4.00195ZM19.4512 18.002C19.4512 19.6588 18.108 21.002 16.4512 21.002C14.7943 21.002 13.4512 19.6588 13.4512 18.002C13.4512 16.3451 14.7943 15.002 16.4512 15.002C18.108 15.002 19.4512 16.3451 19.4512 18.002Z" stroke="#616161" stroke-width="2" stroke-linecap="round" stroke-linejoin="round"/>
                            </svg>