<svg width="21" height="23" viewBox="0 0 21 23" fill="none" xmlns="http://www.w3.org/2000/svg">
                                <path d="M7.04117 12.512L13.8712 16.492M13.8612 5.51195L7.04117 9.49195M19.4512 4.00195C19.4512 5.65881 18.108 7.00195 16.4512 7.00195C14.7943 7.00195 13.4512 5.65881 13.4512 4.00195C13.4512 2.3451 14.7943 1.00195 16.4512 1.00195C18.108 1.00195 19.4512 2.3451 19.4512 4.00195ZM7.45117 11.002C7.45117 12.6588 6.10803 14.002 4.45117 14.002C2.79432 14.002 1.45117 12.6588 1.45117 11.002C1.45117 9.3451 2.79432 8.00195 4.45117 8.00195C6.10803 8.00195 7.45117 9.3451 7.45117 11.002ZM19.4512 18.002C19.4512 19.6588 18.108 21.002 16.4512 21.002C14.7943 21.002 13.4512 19.6588 13.4512 18.002C13.4512 16.3451 14.7943 15.002 16.4512 15.002C18.108 15.002 19.4512 16.3451 19.4512 18.002Z" stroke="#616161" stroke-width="2" stroke-linecap="round" stroke-linejoin="round"/>
                            </svg>