<svg width="20" height="21" viewBox="0 0 20 21" fill="none" xmlns="http://www.w3.org/2000/svg">
<path fill-rule="evenodd" clip-rule="evenodd" d="M13.5991 13.6647L15.5883 18.7918L11.0406 15.666C10.6642 15.4073 10.2175 15.3035 9.78469 15.3547C9.78592 15.3347 9.78655 15.3145 9.78656 15.2941C9.78766 12.9896 9.79856 4.47097 9.90295 1.55351L10 1.30336L12.2719 7.15913C12.5456 7.86475 13.221 8.3514 13.9978 8.3514H18.7465L14.2845 11.4183C13.5567 11.9185 13.2854 12.8561 13.5991 13.6647ZM9.69252 0.0874943C10.0974 -0.0693479 10.6043 0.0962378 10.7936 0.584252L13.2041 6.79743C13.334 7.13201 13.6483 7.3514 13.9978 7.3514H19.1437C19.9894 7.3514 20.3215 8.48228 19.6178 8.96595L14.8509 12.2424C14.5146 12.4736 14.3813 12.916 14.5314 13.303L16.6708 18.8173C16.9826 19.6209 16.1015 20.358 15.403 19.8779L10.4741 16.4901C10.187 16.2927 9.81297 16.2927 9.52586 16.4901L4.9543 19.6323L4.57665 19.9343C3.90182 20.4015 3.05571 19.7191 3.29007 18.9418C3.30002 18.9006 3.31299 18.8591 3.32918 18.8173L4.13635 16.7368L5.44443 13.3406C5.59389 12.9526 5.46118 12.5089 5.12635 12.277L0.380516 8.99123C0.113913 8.80665 -0.0033512 8.52807 7.2773e-05 8.25377C-0.00561257 7.80053 0.323375 7.3514 0.856344 7.3514H6.00222C6.17224 7.3514 6.33393 7.29949 6.47011 7.20765C6.59993 7.11143 6.70395 6.97723 6.76584 6.81654L9.16572 0.585668C9.29593 0.247598 9.51261 0.0964163 9.69252 0.0874943Z" fill="#F5AA01"/>
</svg>
