<svg width="20" height="21" viewBox="0 0 20 21" fill="none" xmlns="http://www.w3.org/2000/svg">
<path fill-rule="evenodd" clip-rule="evenodd" d="M10.4741 16.4901C10.187 16.2927 9.81297 16.2927 9.52586 16.4901L4.59695 19.8779C3.89851 20.358 3.01742 19.6209 3.32918 18.8173L5.46858 13.303C5.61869 12.916 5.4854 12.4736 5.14908 12.2424L0.382204 8.96595C-0.321474 8.48228 0.0106287 7.3514 0.856344 7.3514H6.00222C6.35174 7.3514 6.66604 7.13201 6.79585 6.79743L9.20637 0.584252C9.49293 -0.154386 10.5071 -0.154387 10.7936 0.584252L13.2041 6.79743C13.334 7.13201 13.6483 7.3514 13.9978 7.3514H19.1437C19.9894 7.3514 20.3215 8.48228 19.6178 8.96595L14.8509 12.2424C14.5146 12.4736 14.3813 12.916 14.5314 13.303L16.6708 18.8173C16.9826 19.6209 16.1015 20.358 15.403 19.8779L10.4741 16.4901Z" fill="#F5AA01"/>
</svg>
