<svg width="20" height="21" viewBox="0 0 20 21" fill="none" xmlns="http://www.w3.org/2000/svg">
<path d="M10.7574 16.078C10.2996 15.7634 9.70036 15.7634 9.24264 16.078L4.31373 19.4659C4.17172 19.5635 4.02319 19.5443 3.90506 19.4455C3.78475 19.3448 3.7243 19.1813 3.79532 18.9982L5.93472 13.4838C6.16664 12.8861 5.96433 12.1961 5.4323 11.8304L0.665424 8.5539C0.516486 8.45153 0.469212 8.28429 0.517993 8.11819C0.566447 7.95319 0.689557 7.8514 0.856344 7.8514H6.00222C6.56535 7.8514 7.06021 7.49838 7.262 6.97828L9.67251 0.765103C9.79399 0.451997 10.206 0.451997 10.3275 0.765102L12.738 6.97828C12.9398 7.49838 13.4346 7.8514 13.9978 7.8514H19.1437C19.3104 7.8514 19.4336 7.95319 19.482 8.11819C19.5308 8.2843 19.4835 8.45153 19.3346 8.5539L14.5677 11.8304C14.0357 12.1961 13.8334 12.8861 14.0653 13.4838L16.2047 18.9982C16.2757 19.1812 16.2153 19.3448 16.0949 19.4455C15.9768 19.5443 15.8283 19.5635 15.6863 19.4659L10.7574 16.078Z" stroke="#F5AA01"/>
</svg>
