<svg width="116" height="32" viewBox="0 0 116 32" fill="none" xmlns="http://www.w3.org/2000/svg">
<g clip-path="url(#clip0)">
<path d="M93.7547 31.0955C101.789 31.0955 108.302 24.5823 108.302 16.5478C108.302 8.51325 101.789 2 93.7547 2C85.7202 2 79.2069 8.51325 79.2069 16.5478C79.2069 24.5823 85.7202 31.0955 93.7547 31.0955Z" fill="#F7A700"/>
<path d="M71.2001 15.6078C69.4991 15.6078 68.4919 14.7349 68.4919 13.6606C68.4919 12.4072 69.6334 11.691 71.2001 11.691C72.7667 11.691 73.9082 12.4072 73.9082 13.6158C73.9082 14.7573 72.901 15.6078 71.2001 15.6078ZM71.2001 8.96055C69.8348 8.96055 68.962 8.13244 68.962 7.03576C68.962 6.02861 69.7901 5.17812 71.2001 5.17812C72.6101 5.17812 73.4382 6.05099 73.4382 7.01338C73.4382 8.15482 72.5653 8.96055 71.2001 8.96055ZM71.2001 18.4502C74.6691 18.4502 77.243 16.7492 77.243 13.8396C77.243 11.9372 76.303 10.9301 74.7139 10.102C75.9225 9.36341 76.7058 8.35624 76.7058 6.67766C76.7058 4.21573 74.5125 2.33572 71.2001 2.33572C67.8877 2.33572 65.6943 4.23812 65.6943 6.6329C65.6943 8.35625 66.4776 9.36341 67.6862 10.102C66.03 10.8629 65.1572 11.982 65.1572 13.8844C65.1572 16.6597 67.731 18.4502 71.2001 18.4502ZM51.3032 18.2263H62.8967V15.2496H56.0704L58.6218 13.2801C61.3971 11.1315 62.74 9.83341 62.74 7.21482C62.74 4.23812 60.5914 2.33572 57.3461 2.33572C54.5485 2.33572 53.0489 3.47716 51.5046 5.58099L53.9218 7.52815C55.0856 6.09576 55.9137 5.42432 57.1223 5.42432C58.3533 5.42432 59.2261 6.14052 59.2261 7.46101C59.2261 8.75912 58.4652 9.6096 56.518 11.221L51.3032 15.4958V18.2263V18.2263ZM42.7984 15.563C40.9184 15.563 39.6426 14.0187 39.6426 12.2506C39.6426 10.4377 40.8065 8.93816 42.7536 8.93816C44.6336 8.93816 45.9093 10.4825 45.9093 12.2506C45.9093 14.0635 44.7455 15.563 42.7984 15.563ZM42.7536 18.4949C46.4913 18.4949 49.2665 15.6973 49.2665 12.2506C49.2665 8.75912 46.5136 6.00623 42.7984 6.00623C39.0607 6.00623 36.2855 8.80388 36.2855 12.2506C36.2855 15.742 39.0383 18.4949 42.7536 18.4949ZM31.9547 18.4278C33.0961 18.4278 33.9242 18.1592 34.6404 17.734V15.0035C34.1481 15.272 33.5885 15.4287 32.9619 15.4287C32.2009 15.4287 31.8652 15.0482 31.8652 14.2649V9.1396H34.6852V6.23004H31.8652V3.16382H28.4632V6.23004H27.0308V9.1396H28.4632V14.8244C28.4632 17.5997 29.8733 18.4278 31.9547 18.4278ZM17.9441 18.4502C19.6674 18.4502 20.6746 17.5325 21.4579 16.5254V18.2263H24.8599V6.23004H21.4579V12.922C21.4579 14.5334 20.6298 15.3616 19.3317 15.3616C18.0336 15.3616 17.2727 14.5334 17.2727 12.922V6.23004H13.8707V13.9963C13.8707 16.7492 15.3703 18.4502 17.9441 18.4502ZM5.14767 16.1001C4.05099 16.1001 3.29003 15.563 3.29003 14.6454C3.29003 13.5263 4.18528 12.9444 5.64005 12.9444C6.46816 12.9444 7.22911 13.1234 7.81102 13.392V13.9963C7.81102 15.2273 6.73673 16.1001 5.14767 16.1001ZM4.11813 18.4502C5.77434 18.4502 6.91578 17.8459 7.74388 16.9282V18.2263H11.0339V11.2658C11.0339 9.65436 10.631 8.33387 9.7358 7.43863C8.88532 6.58814 7.54245 6.09576 5.68482 6.09576C3.64813 6.09576 2.35002 6.47624 1.02953 7.05815L1.88002 9.65436C2.97669 9.25149 3.89432 9.0053 5.19243 9.0053C6.8934 9.0053 7.76627 9.78865 7.76627 11.1987V11.4001C6.91578 11.1091 6.04291 10.9077 4.83433 10.9077C1.99192 10.9077 0 12.1163 0 14.7349C0 17.1521 1.85764 18.4502 4.11813 18.4502Z" fill="black"/>
<path d="M110.412 18.4501C113.008 18.4501 115 17.2416 115 14.5782C115 12.3401 113.053 11.5344 111.374 10.9748C110.076 10.5272 108.935 10.2139 108.935 9.54245C108.935 9.02769 109.36 8.66959 110.188 8.66959C111.061 8.66959 112.247 9.09483 113.433 9.78865L114.731 7.43862C113.433 6.56575 111.777 6.05098 110.255 6.05098C107.838 6.05098 105.868 7.41624 105.868 9.85579C105.868 12.2282 107.771 13.0115 109.449 13.5039C110.77 13.9068 111.934 14.153 111.934 14.8915C111.934 15.4735 111.486 15.8316 110.501 15.8316C109.382 15.8316 108.017 15.3392 106.719 14.3992L105.264 16.6373C106.853 17.8906 108.733 18.4501 110.412 18.4501ZM95.2318 11.2882C95.5004 9.74388 96.418 8.73673 97.828 8.73673C99.2604 8.73673 100.156 9.76626 100.357 11.2882H95.2318ZM98.1638 18.4949C100.335 18.4949 101.946 17.6444 103.065 16.2568L101.118 14.5334C100.178 15.4063 99.35 15.7644 98.2085 15.7644C96.6866 15.7644 95.6123 14.9587 95.2766 13.4144H103.625C103.647 13.101 103.67 12.7877 103.67 12.5191C103.67 9.1172 101.834 6.00623 97.828 6.00623C94.3366 6.00623 91.897 8.82625 91.897 12.2506C91.897 15.9658 94.5604 18.4949 98.1638 18.4949Z" fill="black"/>
</g>
<defs>
<clipPath id="clip0">
<rect width="116" height="32" fill="white"/>
</clipPath>
</defs>
</svg>
